<svg height='100px' width='100px'  fill="#252525" xmlns="http://www.w3.org/2000/svg" data-name="Layer 1" viewBox="0 0 128 128" x="0px" y="0px"><defs><style>.cls-1,.cls-2{fill:none;stroke:#252525;stroke-width:4px;}.cls-1{stroke-miterlimit:10;}.cls-2{stroke-linecap:round;stroke-linejoin:round;}</style></defs><title>Artboard 36</title><polyline class="cls-1" points="58 0 58 14 70 14 70 0"></polyline><path class="cls-2" d="M71,104V62a2,2,0,0,0-2-2H61a2,2,0,0,0-2,2v54H53V62a2,2,0,0,0-2-2H43a2,2,0,0,0-2,2v54H35V60s0-6,6-6H59L56,14H72L69,54H89c6,0,6,6,6,6v56H89V62a2,2,0,0,0-2-2H79a2,2,0,0,0-2,2v54H71Z"></path><path d="M103,110c-4.62-1.83-7.13.15-21,2-9.38,1.25-14.07,1.88-17,1-8.76-2.62-8.2-9.4-20-15-3.79-1.8-9-4.19-14-2a12.85,12.85,0,0,0-6,6c-7.35,2-12.18,7.62-12,13a9.3,9.3,0,0,0,2,5.34V124a2,2,0,0,0,4,0v0a23.08,23.08,0,0,0,7,3c7,1.67,10.17-2,17-3a2,2,0,0,0,4,0,4,4,0,0,0,7.76,1.32A25.26,25.26,0,0,0,63,127c6.32.28,10.59-1.16,14-2a47.77,47.77,0,0,1,9-1.31V124a2,2,0,0,0,4,0v-.35q1.54,0,3,.17V124a4,4,0,0,0,7.88.94c6.42,1.22,10.68,2.52,12.12.06C115.06,121.49,109.93,112.75,103,110Z"></path><circle cx="64" cy="23" r="3"></circle></svg>
